# xmcd
#
# Track frame offsets:
#	150
#	11081
#	27624
#	36995
#	53322
#	67701
#	81587
#	99234
#	115675
#	128837
#	143067
#	158723
#
# Disc length: 2363 seconds
#
# Revision: 1
# Processed by: cddbd v1.4PL0 Copyright (c) Steve Scherf et al.
# Submitted via: audiograbber 1.80
#
DISCID=9209390c
DTITLE=Lonesome Travelers - Lonesome Travelers
DYEAR=1900
DGENRE=
TTITLE0=Free Rambling Cowboy
TTITLE1=Money to Burn
TTITLE2=Runaway Lovesick Train
TTITLE3=Prisoners of Love
TTITLE4=The Fire Eater
TTITLE5=I'm Free
TTITLE6=Land of Broken Hearts
TTITLE7=In a Couple of Hours
TTITLE8=Bed of Roses
TTITLE9=Another Chip Off the Heart
TTITLE10=Ain't it a Shame
TTITLE11=The Brakeman
EXTD=
EXTT0=
EXTT1=
EXTT2=
EXTT3=
EXTT4=
EXTT5=
EXTT6=
EXTT7=
EXTT8=
EXTT9=
EXTT10=
EXTT11=
PLAYORDER=
